<svg xmlns="http://www.w3.org/2000/svg" xml:space="preserve" width="1650" height="1650" overflow="hidden"><path d="M-581.821 360.463c0-208.16 168.75-376.91 376.91-376.91h896.18c208.16 0 376.91 168.75 376.91 376.91v896.18c0 208.16-168.75 376.91-376.91 376.91h-896.18c-208.16 0-376.91-168.75-376.91-376.91z" style="fill:none" transform="translate(581.821 16.447)"/><path d="M536.747 894.578h576.506c110.133 0 198.795 88.663 198.795 198.796s-88.663 198.795-198.795 198.795H536.747c-110.133 0-198.795-88.663-198.795-198.796s88.662-198.795 198.795-198.795M576.506 357.831h496.988c132.159 0 238.554 106.396 238.554 238.555S1205.653 834.94 1073.494 834.94H576.506c-132.159 0-238.554-106.395-238.554-238.554 0-132.16 106.395-238.555 238.554-238.555" style="fill:#fff"/><path d="M576.506 437.35h496.988c88.106 0 159.036 70.93 159.036 159.035 0 88.106-70.93 159.037-159.036 159.037H576.506c-88.106 0-159.036-70.93-159.036-159.037 0-88.106 70.93-159.036 159.036-159.036" style="fill:#8f8f93"/><path d="M705.723 596.385a129.217 129.217 0 0 1-129.217 129.217 129.217 129.217 0 0 1-129.217-129.217 129.217 129.217 0 0 1 129.217-129.217 129.217 129.217 0 0 1 129.217 129.217" style="fill:#fff"/><path d="M1232.53 1093.374a129.217 129.217 0 0 1-129.217 129.217 129.217 129.217 0 0 1-129.217-129.217 129.217 129.217 0 0 1 129.217-129.217 129.217 129.217 0 0 1 129.217 129.217" style="fill:#8f8f93"/></svg>